<?xml version="1.0" encoding="utf-8"?>
<!-- Generator: Adobe Illustrator 16.0.0, SVG Export Plug-In . SVG Version: 6.00 Build 0)  -->
<!DOCTYPE svg PUBLIC "-//W3C//DTD SVG 1.1//EN" "http://www.w3.org/Graphics/SVG/1.1/DTD/svg11.dtd">
<svg version="1.1" id="Layer_1" xmlns="http://www.w3.org/2000/svg" xmlns:xlink="http://www.w3.org/1999/xlink" x="0px" y="0px"
	 width="492.5px" height="281.5px" viewBox="0 0 492.5 281.5" enable-background="new 0 0 492.5 281.5" xml:space="preserve">
<title>Artboard 1 copy 6</title>
<path fill="#FFFFFF" d="M104.199,74.842c-0.435,0.435-0.435,1.883-1.014,3.331c-0.435,1.304-1.593,2.173-2.897,2.173h-6.952
	c-1.304,0-2.028,1.014-2.028,2.897c-1.014,3.766-1.593,7.532-2.028,11.442c-1.159,4.49-3.476,16.657-3.476,17.96
	c-0.58,2.173,0,2.028,1.593,2.028c1.014,0.724,5.938,0,8.401-0.435c2.172,0,2.607,1.593,2.028,2.028c0,1.014-0.435,2.897-0.435,4.49
	c-0.58,1.593-2.028,1.014-3.042,1.014c-1.448,0-6.952,0.58-8.401,0.58c-2.172-0.58-2.028,0.724-2.028,3.911
	c-0.435,2.317-4.056,23.61-4.49,25.203c0,2.173-1.014,2.607-2.027,2.027c-1.594,0-3.332,0.58-4.925,0c-2.317,0-0.435-2.752,0-5.504
	c0.435-2.317,3.911-22.306,3.911-24.768c0.435-2.897-1.014-2.028-2.607-2.028c-2.173-0.435-7.532,0-10.429,0
	c-3.477,0-11.153-0.435-12.891-0.435c-1.014-0.29-2.173,0.29-2.462,1.303c-0.145,0.29-0.145,0.435-0.145,0.725
	c-0.29,2.172-0.579,4.345-1.159,6.518c-0.435,2.318-1.883,13.326-1.883,15.933c0,2.607-1.448,2.028-4.056,1.594
	c-2.897-0.579-9.415,0-13.036,0.435c-3.477,0-2.028-2.317-2.028-2.897c0.724-2.172,1.159-4.345,1.448-6.518
	c0.435-2.317,1.159-14.629,1.159-15.354c0.435-1.159-1.159-1.159-1.593-1.159h-7.532c-1.593,0-1.593-0.29-1.014-1.883
	c0.579-1.159,1.159-2.317,1.593-3.476c0.29-1.159,1.303-1.883,2.607-2.028c1.593,0.435,3.187,0.579,4.78,0.435
	c2.173,0,2.173-1.593,2.173-2.607c0-1.014,0.869-4.924,0.869-8.401c0.724-3.331,2.607-16.946,2.607-19.409
	c0-2.173-1.014-2.028-1.448-2.028h-5.504c-1.593,0-1.593-1.014-1.593-1.449c0.58-1.159,0.58-1.593,1.159-2.607
	c0.29-0.869,0.869-1.738,1.448-2.607c1.014,0,3.332-0.435,4.925-0.435c2.172,0,2.028-1.159,2.896-3.476
	c0.435-2.462,2.173-10.429,2.173-14.918c0-3.911,2.607-3.911,5.504-3.911h8.401c2.028,0.145,4.056,0.435,5.938,1.014
	c2.897,0.435,1.593,2.172,1.014,3.911c-0.869,2.897-1.449,5.938-2.028,8.98c-0.58,3.911-1.593,7.387-1.014,7.821
	c0,1.014,2.028,0.579,4.056,0.579c1.883,0,6.953-0.579,10.863-1.159h13.471c1.593,0,1.448-0.869,1.883-2.896
	c0.724-4.925,1.738-9.705,3.042-14.339c0.435-2.607,1.449-2.897,2.317-2.607c1.738-0.29,3.332-0.435,5.07-0.435
	c2.752,0.435,0.29,2.173-0.435,5.359c-0.724,4.056-2.607,13.036-2.607,14.484c0,1.449,1.883,1.014,3.332,1.014
	c2.028-0.145,4.056-0.58,6.083-1.014C103.765,72.669,104.199,74.263,104.199,74.842z M80.734,79.188
	c-2.897,0-9.994,1.593-13.47,1.593c-2.897,0.435-5.938,0.435-8.835,0c-1.593-0.435-5.069-1.014-5.504,0
	c-0.435,1.593-1.014,4.49-1.593,6.953c-0.435,6.228-1.304,12.312-2.607,18.395c-0.435,2.173-1.014,5.07-1.014,5.504
	s-0.58,2.172,2.172,2.607c2.752,0,13.181-0.435,16.512-0.435c2.752,0.29,5.649,0.435,8.401,0.435c1.593,0,2.317-0.29,2.897-2.897
	c0.579-2.607,0.869-13.181,2.028-16.077c0.579-3.911,1.448-7.677,2.607-11.443C82.762,80.781,83.342,79.188,80.734,79.188
	L80.734,79.188z"/>
<path fill="#FFFFFF" d="M37.426,168.7l13.615,0.145c3.477,0,8.546,0.29,11.443,0.29c2.896,0,2.172,1.304,2.172,3.766l0.145,14.629
	v2.897c0,2.027,0.29,2.607-1.883,2.607c-1.883,0-10.284-0.725-12.602-0.725h-13.47c-1.883,0-3.766,0.145-5.214,0.29l-2.607,0.289
	c-0.145,0.725-0.145,4.78-0.145,5.649v4.2c0,1.159-0.145,2.317-0.29,3.477l-0.29,1.593h2.752c1.593,0,3.477-0.145,5.07-0.145h8.98
	c5.07,0,8.835-0.579,11.587-0.579s2.462,1.303,2.462,2.172c-0.145,1.015-0.29,2.028-0.579,3.042
	c-0.145,1.448-0.725,1.448-1.738,1.448c-1.014,0-3.187-0.145-5.069-0.145c-1.883,0-9.27-0.29-11.587-0.29h-6.663
	c-1.448,0-3.187,0-4.924,0.146v12.166c0,6.373-0.29,12.746-0.435,14.63c-0.435,3.766-0.145,11.877-0.145,13.76
	s-1.304,1.883-2.897,1.883h-8.69c-2.028-0.145-1.448-1.738-1.593-4.346c-0.435-2.317-0.145-11.587-0.145-16.367
	c0-4.779,0.435-18.395,0.435-21.146s-0.435-5.649-0.435-11.008c0-5.215,0.435-7.532,0.435-11.009v-11.298
	c0-2.317,0.435-6.662,0.435-8.979s0.58-2.463,1.738-2.463s2.897,0.29,4.2,0.29C26.418,169.135,33.95,168.7,37.426,168.7z"/>
<path fill="#FFFFFF" d="M123.318,254.592c-4.345,2.897-10.429,2.607-17.236,2.607c-16.367,0-32.445-20.423-32.445-43.019
	c0.29-8.256,1.738-16.512,4.345-24.333c4.345-12.167,12.602-24.189,29.548-24.189c33.749,0,36.066,37.515,36.066,46.061
	C143.596,218.381,139.975,243.439,123.318,254.592z M106.806,172.756c-18.685,0-25.348,20.423-25.348,40.121
	c0,19.699,11.732,29.838,15.354,33.459c3.476,3.911,6.953,3.477,11.587,3.477c14.919,0,24.623-17.671,24.623-38.094
	S125.636,172.756,106.806,172.756L106.806,172.756z"/>
<path fill="#B6F241" d="M288.584,210.994c0,11.588-5.649,30.707-14.774,37.225s-25.492,7.532-28.968,7.532h-12.746
	c-2.028,0-2.173-1.159-1.738-2.173s0-1.883,0-4.925s-0.435-23.899-0.435-33.169c0-8.98,0.145-21.292,0.145-27.086
	c0-5.793-0.58-17.236-0.58-21.002s0.29-5.504,1.449-5.504s1.448,0.435,2.607,0.435s3.766-0.29,5.359-0.29s3.331,0.146,4.924,0.146
	c4.2,0,8.401,0.145,12.602,0.724c3.187,0.435,8.835-0.145,19.988,10.429C287.57,183.909,288.584,199.262,288.584,210.994z
	 M266.857,247.205c7.966-4.346,15.933-14.484,15.933-36.211s-7.967-32.155-15.643-37.225c-4.636-2.896-10.14-4.49-15.644-4.635
	l-0.579,12.312c-0.435,6.663-0.435,14.34-0.435,18.25c0,8.111,0.725,14.774,0.725,20.568c0,2.896-0.146,10.429-0.146,17.381
	c-0.145,4.056-0.145,8.4-0.145,12.891C256.573,251.115,261.933,249.957,266.857,247.205L266.857,247.205z"/>
<path fill="#B6F241" d="M354.922,261.399h-6.952c-0.58,0-1.015-0.145-1.449-1.158c-0.579-1.449-1.014-3.042-1.448-4.49
	c-0.724-1.883-1.158-3.767-1.448-5.649c-1.014-4.056-2.173-7.966-3.766-11.877c-0.58-1.158-1.448-3.331-2.028-5.359l-1.158-3.621
	c-0.869-2.027-1.159-2.027-2.028-2.027c-1.448,0-2.606,0-3.91,0.145c-2.173,0.146-4.49,0.29-5.359,0.29s-5.215,0.145-9.271,0.145
	h-7.676c-0.58-0.145-1.159,0.29-1.449,1.448l-0.289,1.304l-0.58,2.317c-0.579,2.028-5.793,21.727-6.228,22.74
	c-0.146,1.449-0.58,2.752-1.159,4.201c-0.579,1.303-0.869,2.606-1.304,4.056c-0.435,1.014-0.724,2.172-0.869,3.187
	c-0.435,1.014-0.289,1.158-1.448,1.158h-1.883c-0.869,0-1.014-0.579-0.579-1.593c0-0.146,0-0.435,0.145-0.58
	c0.145-0.579,0.29-1.158,0.579-1.737l1.159-4.636c0.724-2.027,1.304-4.056,1.738-6.083s4.635-15.788,5.648-19.119
	c1.014-3.332,3.331-10.719,4.056-14.34c0.869-3.91,2.607-8.98,3.187-11.877s2.317-9.125,3.331-12.891
	c0.869-3.042,1.738-5.938,2.897-8.836c1.448-4.056,2.752-8.111,3.91-12.312c1.015-3.476,2.028-5.938,4.346-5.938
	c1.159,0,2.027,2.752,3.331,6.229c1.448,3.187,3.911,13.47,4.49,15.354c0.435,2.317,5.938,16.946,6.519,19.119
	c1.014,2.462,5.358,14.773,6.808,17.96c1.014,3.042,5.214,15.498,6.228,19.409s4.346,12.021,5.069,13.615
	C356.515,260.965,356.805,261.399,354.922,261.399z M332.182,215.484c-1.014-2.317-3.187-10.429-4.49-14.194
	c-1.304-3.767-4.056-13.471-4.346-15.498c-0.579-2.317-1.883-6.663-2.462-6.663s-1.159,3.187-2.028,6.083
	c-0.579,2.752-3.766,14.05-4.779,17.092c-0.579,3.042-3.187,12.456-4.2,15.063c-1.015,2.607,2.027,2.173,3.187,2.173
	c1.158,0,5.648-0.29,7.242-0.29c3.621-0.289,7.387-0.289,11.008-0.145C333.774,219.105,333.051,218.092,332.182,215.484z"/>
<path fill="#B6F241" d="M388.091,165.658c3.621-0.145,5.214,0.435,6.229,2.317c1.014,1.884,5.069,10.284,8.256,16.513
	s11.587,23.898,14.773,29.838c1.594,3.041,4.346,7.821,6.663,12.166l4.056,7.532l-0.435-7.242l-0.869-12.312
	c-0.29-6.663-0.29-24.479-0.29-28.824c-0.145-4.2-0.579-13.325-0.724-17.96l0.145-12.022c-0.145-2.896,2.896-1.883,4.346-1.593
	c1.448,0.289,2.896,0.289,4.345,0.145c2.317,0,1.594,1.159,1.448,3.621c-0.145,2.463,0.435,40.701,0.725,47.219
	c-0.145,6.808,1.159,20.567,1.448,26.217c0.29,5.648,1.159,19.554,1.304,21.871s-1.158,2.607-2.317,2.607
	c-1.448-0.29-4.346,0.289-5.794,0.145s-1.448-0.145-2.896-2.462c-1.014-2.173-8.401-19.265-11.008-24.189
	c-2.752-4.924-12.022-24.044-14.774-29.837c-1.448-2.897-3.766-7.098-5.938-10.719l-3.766-6.373l0.724,11.877
	c0.29,6.519,0.725,13.905,0.869,18.25c0.29,8.691,1.304,26.651,1.448,30.417c0.146,3.767,0.725,9.994,0.869,12.022
	c0.146,2.027-0.869,2.317-2.317,2.317s-5.359,0.579-8.4,0.725c-3.042,0.145-8.69,0.579-12.167,0.579s-3.187-1.738-3.621-3.477
	s-0.869-3.331-0.725-10.573c-0.145-7.098-0.435-22.017,0-27.665c0.146-6.083,1.304-27.375,1.159-32.444
	c-0.145-5.07-0.29-9.85,0-14.774s4.779-3.331,6.663-3.331C379.4,166.238,384.47,165.658,388.091,165.658z"/>
<path fill="#B6F241" d="M470.94,137.849c3.477,0.29,2.897,2.173,2.607,6.229s-0.869,13.47-0.29,29.258
	c0.29,16.078,1.594,34.763,1.738,38.673c0.146,3.911,1.448,20.568,1.159,23.32c-0.29,2.752,0.724,14.629,0.869,17.96
	c0.145,3.332-1.738,3.477-3.621,3.332l-11.442,0.435c-2.897,0.289-2.897-2.173-3.188-5.07c-0.434-2.606,0.435-8.4,0.146-14.194
	c-0.29-6.229,0.145-35.342,0-39.832c-0.146-4.489-0.579-27.52-0.725-31.575c-0.145-2.028-0.145-5.794-0.145-8.98v-6.083l-0.29-6.953
	c-0.289-6.808,1.594-6.952,3.187-6.518C463.119,138.139,467.175,137.414,470.94,137.849z"/>
<path fill="#3EC035" d="M192.119,3l1.738,119.206l36.79,1.738v19.699l-120.074,1.738l1.738-21.437l37.659-3.476l1.738-72.711
	l-19.699-2.607V25.306l18.83-1.738l3.476-17.96L192.119,3z"/>
<path fill="#3EC035" d="M280.038,38.776l2.607,89.368l40.411-1.303l1.303-84.733l29.549-1.303v88.644l-14.195,1.304l-0.724,15.499
	l-73.87-2.028l-0.725-12.167l-14.194-2.607V40.804L280.038,38.776z"/>
<path fill="#3EC035" d="M401.851,117.426l-0.724,29.113l-29.549-0.869V38.776l88.645,0.724l2.027,15.498l14.919,2.607L475.142,99.9
	l-13.471,1.304l-1.304,13.47L401.851,117.426z M401.127,55.578v42.294l44.321-1.304V56.882L401.127,55.578z"/>
<path fill="#FFFFFF" d="M216.307,255.316c-1.014,0.724-5.938,1.014-8.401,0.579s-2.317-1.304-3.331-3.187
	c-1.014-1.883-12.602-16.512-18.685-25.203c-3.042-4.345-8.545-11.297-13.181-17.235l-8.69-10.719l-0.58,5.069
	c-0.29,3.042-0.435,6.084-0.29,8.98c0.58,5.504,0.58,47.509,0.58,50.695s-3.332,3.187-5.07,3.187c-1.738,0-1.448-2.173-1.448-3.477
	c-0.29-3.187-0.435-6.373-0.145-9.704c0.145-3.911,1.159-76.478,0.29-81.691c-0.58-5.215,0.435-5.504,2.172-5.504
	c1.738,0,13.47,0.434,18.54,0.434c5.069,0,23.754,1.449,23.754,12.457c0,17.236-27.81,17.381-28.824,16.946
	c1.159,1.159,35.776,48.667,40.411,53.157C218.335,254.592,217.031,254.736,216.307,255.316z M169.958,191.585
	c3.766-0.145,7.532-0.435,11.298-1.014c6.663-1.158,11.587-2.752,11.587-8.256s-10.429-7.967-15.354-7.967
	c-3.187-0.145-6.228-0.145-8.835-0.145h-4.2l-0.724,17.526C165.902,191.73,167.785,191.73,169.958,191.585L169.958,191.585z"/>
</svg>
